<svg width="26" height="26" viewBox="0 0 26 26" fill="none" xmlns="http://www.w3.org/2000/svg">
<path d="M15.8948 16.5082C17.1969 16.2376 18.3782 15.7684 19.2966 15.0796C20.865 13.9034 21.6666 12.0866 21.6666 10.2917C21.6666 9.03254 21.1892 7.85696 20.3627 6.86127C19.9022 6.30644 21.2493 2.16671 20.0524 2.72425C18.8557 3.28178 17.1008 4.51586 16.1809 4.2435C15.1962 3.95191 14.1229 3.79171 12.9999 3.79171C12.0245 3.79171 11.0868 3.91256 10.2117 4.1354C8.93991 4.4593 7.7236 3.25004 6.49992 2.72425C5.27622 2.19845 5.94395 6.48015 5.58049 6.93044C4.78889 7.91118 4.33325 9.06152 4.33325 10.2917C4.33325 12.0866 5.3033 13.9034 6.87166 15.0796C7.91643 15.8632 9.22667 16.3625 10.6925 16.6087" stroke="#374151" stroke-width="2" stroke-linecap="round"/>
<path d="M10.6925 16.6086C10.065 17.2994 9.75122 17.9552 9.75122 18.5763C9.75122 19.1973 9.75122 20.771 9.75122 23.2976" stroke="#374151" stroke-width="2" stroke-linecap="round"/>
<path d="M15.8948 16.5083C16.4894 17.2887 16.7868 17.9895 16.7868 18.6105C16.7868 19.2316 16.7868 20.794 16.7868 23.2977" stroke="#374151" stroke-width="2" stroke-linecap="round"/>
<path d="M3.25 16.9084C3.73688 16.9679 4.098 17.1918 4.33333 17.58C4.68634 18.1623 5.99853 20.3222 7.4886 20.3222C8.48201 20.3222 9.23623 20.3222 9.7513 20.3222" stroke="#374151" stroke-width="2" stroke-linecap="round"/>
</svg>
