<svg width="52" height="52" viewBox="0 0 52 52" fill="none" xmlns="http://www.w3.org/2000/svg">
<path d="M35.3598 24.2886C34.0674 24.2886 33.0198 25.3357 33.0198 26.6286V31.3086C33.0198 32.601 34.0674 33.6486 35.3598 33.6486C36.6517 33.6486 37.6993 32.6015 37.6998 31.3086V26.6286C37.6998 25.3357 36.6522 24.2886 35.3598 24.2886ZM16.6398 24.2886C15.3474 24.2886 14.2998 25.3357 14.2998 26.6286V31.3086C14.2998 32.601 15.3474 33.6486 16.6398 33.6486C17.9317 33.6486 18.9798 32.6015 18.9798 31.3086V26.6286C18.9798 26.0085 18.733 25.4129 18.2948 24.9741C18.0775 24.7568 17.8194 24.5843 17.5355 24.4667C17.2515 24.3491 16.9472 24.2886 16.6398 24.2886Z" fill="#1F2937"/>
<path d="M47.0007 14.987C46.2402 14.2265 45.3374 13.6232 44.3438 13.2116C43.3501 12.8 42.2851 12.5881 41.2096 12.5881H36.3285L40.6084 8.31282C41.5229 7.39825 41.5229 5.91595 40.6084 5.00138C39.6943 4.08681 38.2115 4.08681 37.2974 5.00138L29.7087 12.5886H22.2885L14.7023 4.99985V4.99731C13.7877 4.08325 12.3054 4.08325 11.3909 4.99731C10.4768 5.91188 10.4768 7.39419 11.3909 8.30876L15.6682 12.5886H10.7891C9.71361 12.5886 8.64865 12.8005 7.65503 13.2121C6.66142 13.6237 5.7586 14.227 4.99814 14.9875C4.23767 15.748 3.63445 16.6509 3.22291 17.6445C2.81137 18.6381 2.59957 19.7031 2.59961 20.7786V39.4986C2.59961 41.671 3.46238 43.7536 4.99852 45.2897C6.53445 46.8255 8.61753 47.6884 10.7896 47.6886H41.2096C43.3815 47.6886 45.4651 46.8258 47.0007 45.2897C48.5365 43.7537 49.3994 41.6707 49.3996 39.4986V20.7786C49.3996 18.6062 48.5363 16.5231 47.0007 14.987ZM44.7196 39.4981L44.7034 39.8348C44.5297 41.6345 43.0174 43.0081 41.2096 43.0081H10.7896L10.4529 42.9913C8.65375 42.8182 7.28012 41.3059 7.28012 39.4981V20.7786L7.29637 20.4414C7.47004 18.6417 8.98231 17.2686 10.7901 17.2686H41.2101C43.1484 17.2686 44.7201 18.8398 44.7201 20.7786L44.7196 39.4981Z" fill="#1F2937"/>
</svg>
