<svg xmlns="http://www.w3.org/2000/svg" xmlns:xlink="http://www.w3.org/1999/xlink" fill="none" version="1.1" width="46.66666030883789" height="42" viewBox="0 0 46.66666030883789 42"><g style="mix-blend-mode:passthrough"><g><g style="mix-blend-mode:passthrough"><path d="M0,10.5C0,7.23842,0,5.60761,0.532842,4.32122C1.2433,2.60603,2.60603,1.2433,4.32122,0.532842C5.60761,0,7.23842,0,10.5,0C10.5,0,36.1667,0,36.1667,0C39.4282,0,41.059,0,42.3456,0.532842C44.0606,1.2433,45.4235,2.60603,46.1337,4.32122C46.6667,5.60761,46.6667,7.23842,46.6667,10.5C46.6667,10.5,46.6667,31.5,46.6667,31.5C46.6667,34.7615,46.6667,36.3923,46.1337,37.6789C45.4235,39.3939,44.0606,40.7568,42.3456,41.4671C41.059,42,39.4282,42,36.1667,42C36.1667,42,10.5,42,10.5,42C7.23842,42,5.60761,42,4.32122,41.4671C2.60603,40.7568,1.2433,39.3939,0.532842,37.6789C0,36.3923,0,34.7615,0,31.5C0,31.5,0,10.5,0,10.5C0,10.5,0,10.5,0,10.5Z" fill="#EF6285" fill-opacity="0.3499999940395355"/></g><g style="mix-blend-mode:passthrough"><path d="M23.333366030883788,9.916666030883789C24.29986603088379,9.916666030883789,25.083366030883788,10.700167030883788,25.083366030883788,11.666666030883789L25.083366030883788,30.333366030883788C25.083366030883788,31.299866030883788,24.29986603088379,32.08336603088379,23.333366030883788,32.08336603088379C22.36686603088379,32.08336603088379,21.583366030883788,31.299866030883788,21.583366030883788,30.333366030883788L21.583366030883788,11.666666030883789C21.583366030883788,10.700167030883788,22.36686603088379,9.916666030883789,23.333366030883788,9.916666030883789ZM11.666666030883789,16.91666603088379C12.63315603088379,16.91666603088379,13.416666030883789,17.70017603088379,13.416666030883789,18.66666603088379L13.416666030883789,30.333366030883788C13.416666030883789,31.299866030883788,12.63315603088379,32.08336603088379,11.666666030883789,32.08336603088379C10.700169030883789,32.08336603088379,9.916666030883789,31.299866030883788,9.916666030883789,30.333366030883788L9.916666030883789,18.66666603088379C9.916666030883789,17.70017603088379,10.700167030883788,16.91666603088379,11.666666030883789,16.91666603088379ZM34.99996603088379,21.583366030883788C35.966466030883794,21.583366030883788,36.74996603088379,22.36686603088379,36.74996603088379,23.333366030883788L36.74996603088379,30.333366030883788C36.74996603088379,31.299866030883788,35.966466030883794,32.08336603088379,34.99996603088379,32.08336603088379C34.03356603088379,32.08336603088379,33.24996603088379,31.299866030883788,33.24996603088379,30.333366030883788L33.24996603088379,23.333366030883788C33.24996603088379,22.36686603088379,34.03356603088379,21.583366030883788,34.99996603088379,21.583366030883788Z" fill-rule="evenodd" fill="#EF6285" fill-opacity="1"/></g></g></g></svg>