<svg xmlns="http://www.w3.org/2000/svg" xmlns:xlink="http://www.w3.org/1999/xlink" fill="none" version="1.1" width="42" height="42" viewBox="0 0 42 42"><clipPath id="master_svg0_60_0645"><rect x="0" y="0" width="42" height="42" rx="0"/></clipPath><g clip-path="url(#master_svg0_60_0645)" style="mix-blend-mode:passthrough"><g><g style="mix-blend-mode:passthrough"><path d="M21,3.9375C11.57663,3.9375,3.9375,11.57663,3.9375,21C3.9375,25.1549,5.42404,28.9651,7.89239,31.924C7.89239,31.924,6.09051,36.788,6.09051,36.788C5.91524,37.2612,6.02668,37.7928,6.37716,38.1558C6.727650000000001,38.5185,7.25511,38.6486,7.73404,38.4898C7.73404,38.4898,13.80894,36.4773,13.80894,36.4773C15.9956,37.4948,18.4332,38.0625,21,38.0625C30.4234,38.0625,38.0625,30.4234,38.0625,21C38.0625,11.57663,30.4234,3.9375,21,3.9375C21,3.9375,21,3.9375,21,3.9375Z" fill="#EF6285" fill-opacity="0.3499999940395355"/></g><g style="mix-blend-mode:passthrough"><g><g style="mix-blend-mode:passthrough"><ellipse cx="14" cy="21" rx="1.75" ry="1.75" fill="#EF6285" fill-opacity="1"/></g><g style="mix-blend-mode:passthrough"><ellipse cx="21" cy="21" rx="1.75" ry="1.75" fill="#EF6285" fill-opacity="1"/></g><g style="mix-blend-mode:passthrough"><ellipse cx="28" cy="21" rx="1.75" ry="1.75" fill="#EF6285" fill-opacity="1"/></g></g></g></g></g></svg>