<svg xmlns="http://www.w3.org/2000/svg" xmlns:xlink="http://www.w3.org/1999/xlink" fill="none" version="1.1" width="34.79999923706055" height="42" viewBox="0 0 34.79999923706055 42"><g style="mix-blend-mode:passthrough"><g><g style="mix-blend-mode:passthrough"><path d="M3.6000001430511475,12.240000143051148C3.6000001430511475,9.556190143051147,3.6000001430511475,8.214260143051147,4.045304143051148,7.155740143051148C4.639040143051147,5.744390143051147,5.777900143051148,4.6230601430511475,7.211300143051147,4.038453143051147C8.286360143051148,3.6000001430511475,9.649250143051148,3.6000001430511475,12.375000143051148,3.6000001430511475C12.375000143051148,3.6000001430511475,26.025000143051148,3.6000001430511475,26.025000143051148,3.6000001430511475C28.750700143051148,3.6000001430511475,30.113600143051148,3.6000001430511475,31.188800143051147,4.038453143051147C32.622000143051146,4.6230601430511475,33.76100014305115,5.744390143051147,34.354600143051144,7.155740143051148C34.80000014305115,8.214260143051147,34.80000014305115,9.556190143051147,34.80000014305115,12.240000143051148C34.80000014305115,12.240000143051148,34.80000014305115,33.36000014305115,34.80000014305115,33.36000014305115C34.80000014305115,36.04380014305115,34.80000014305115,37.385700143051146,34.354600143051144,38.44440014305115C33.76100014305115,39.85560014305115,32.622000143051146,40.97700014305115,31.188800143051147,41.56150014305115C30.113600143051148,42.000000143051146,28.750700143051148,42.000000143051146,26.025000143051148,42.000000143051146C26.025000143051148,42.000000143051146,12.375000143051148,42.000000143051146,12.375000143051148,42.000000143051146C9.649250143051148,42.000000143051146,8.286360143051148,42.000000143051146,7.211300143051147,41.56150014305115C5.777900143051148,40.97700014305115,4.639040143051147,39.85560014305115,4.045304143051148,38.44440014305115C3.6000001430511475,37.385700143051146,3.6000001430511475,36.04380014305115,3.6000001430511475,33.36000014305115C3.6000001430511475,33.36000014305115,3.6000001430511475,12.240000143051148,3.6000001430511475,12.240000143051148C3.6000001430511475,12.240000143051148,3.6000001430511475,12.240000143051148,3.6000001430511475,12.240000143051148Z" fill="#EF6285" fill-opacity="0.4000000059604645"/></g><g style="mix-blend-mode:passthrough"><g><g style="mix-blend-mode:passthrough"><path d="M20.23,0.12974C19.5759,-0.000379721,18.9002,-0.000216421,17.923,0.0000197213C17.923,0.0000197213,9.40207,0.0000399989,9.40207,0.0000399989C8.18469,0.0000306648,7.20268,0.0000231541,6.40346,0.054553C5.58166,0.110624,4.85498,0.228836,4.16689,0.513853C2.51294,1.19894,1.1989,2.51298,0.513814,4.16693C0.228796,4.85501,0.110584,5.58171,0.0545132,6.4035C-0.0000165392,7.20272,-0.00000903146,8.18473,2.40914e-7,9.4021C2.40914e-7,9.4021,2.40914e-7,29.2981,2.40914e-7,29.2981C-0.00000903146,30.5154,-0.0000165392,31.4973,0.0545132,32.2965C0.110584,33.1184,0.228796,33.845,0.513814,34.5332C1.1989,36.187,2.51294,37.5012,4.16689,38.1863C4.85498,38.4712,5.58166,38.5895,6.40346,38.6455C7.20266,38.7,8.18467,38.7,9.40205,38.7C9.40205,38.7,22.0979,38.7,22.0979,38.7C23.3154,38.7,24.2973,38.7,25.0965,38.6455C25.9184,38.5895,26.645,38.4712,27.3332,38.1863C28.987,37.5012,30.301,36.187,30.9861,34.5332C31.2712,33.845,31.3895,33.1184,31.4455,32.2965C31.5,31.4973,31.5,30.5154,31.5,29.2981C31.5,29.2981,31.5,13.577,31.5,13.577C31.5002,12.6,31.5004,11.9241,31.3702,11.2699C31.1974,10.4005,30.8549,9.57373,30.3624,8.83669C29.9918,8.28213,29.5139,7.80433,28.8229,7.11362C28.8229,7.11362,24.3864,2.67719,24.3864,2.67719C23.6957,1.98617,23.2178,1.50816,22.6633,1.13762C21.9263,0.645151,21.0994,0.302672,20.23,0.12974C20.23,0.12974,20.23,0.12974,20.23,0.12974Z" fill="#FFECF1" fill-opacity="1"/></g><g style="mix-blend-mode:passthrough"><path d="M7.200000286102295,12.15000114440918C7.200000286102295,11.40441614440918,7.804415286102295,10.80000114440918,8.550000286102295,10.80000114440918L15.750000286102296,10.80000114440918C16.495580286102296,10.80000114440918,17.100000286102294,11.40441614440918,17.100000286102294,12.15000114440918C17.100000286102294,12.89558114440918,16.495580286102296,13.500001144409179,15.750000286102296,13.500001144409179L8.550000286102295,13.500001144409179C7.804415286102295,13.500001144409179,7.200000286102295,12.89558114440918,7.200000286102295,12.15000114440918ZM7.200000286102295,19.35000114440918C7.200000286102295,18.60442114440918,7.804415286102295,18.00000114440918,8.550000286102295,18.00000114440918L22.950000286102295,18.00000114440918C23.695600286102295,18.00000114440918,24.300000286102296,18.60442114440918,24.300000286102296,19.35000114440918C24.300000286102296,20.09558114440918,23.695600286102295,20.70000114440918,22.950000286102295,20.70000114440918L8.550000286102295,20.70000114440918C7.804415286102295,20.70000114440918,7.200000286102295,20.09558114440918,7.200000286102295,19.35000114440918ZM8.550000286102295,25.20000114440918C7.804415286102295,25.20000114440918,7.200000286102295,25.80440114440918,7.200000286102295,26.55000114440918C7.200000286102295,27.29560114440918,7.804415286102295,27.90000114440918,8.550000286102295,27.90000114440918L22.950000286102295,27.90000114440918C23.695600286102295,27.90000114440918,24.300000286102296,27.29560114440918,24.300000286102296,26.55000114440918C24.300000286102296,25.80440114440918,23.695600286102295,25.20000114440918,22.950000286102295,25.20000114440918L8.550000286102295,25.20000114440918Z" fill-rule="evenodd" fill="#EF6285" fill-opacity="1"/></g><g style="mix-blend-mode:passthrough"><path d="M29.250000762939454,10.800040095367432C29.796030762939452,10.800040095367432,30.288270762939455,10.471120095367432,30.497240762939455,9.966660095367432C30.706200762939453,9.462200095367432,30.590690762939452,8.88154009536743,30.204590762939453,8.495440095367432C30.204590762939453,8.495440095367432,23.004590762939454,1.2954460953674316,23.004590762939454,1.2954460953674316C22.61849076293945,0.9093482853674316,22.037840762939453,0.7938480953674316,21.533378762939453,1.0028020953674317C21.028918762939455,1.2117560953674316,20.700000762939453,1.7040150953674318,20.700000762939453,2.2500400953674315C20.700000762939453,2.2500400953674315,20.700000762939453,9.45004009536743,20.700000762939453,9.45004009536743C20.700000762939453,10.19563009536743,21.304417762939455,10.800040095367432,22.050000762939455,10.800040095367432C22.050000762939455,10.800040095367432,29.250000762939454,10.800040095367432,29.250000762939454,10.800040095367432C29.250000762939454,10.800040095367432,29.250000762939454,10.800040095367432,29.250000762939454,10.800040095367432Z" fill="#EF6285" fill-opacity="0.4000000059604645"/></g></g></g></g></g></svg>