<svg width="24" height="24" viewBox="0 0 24 24" fill="none" xmlns="http://www.w3.org/2000/svg">
<path d="M8.81738 15.1808L15.1814 8.81689" stroke="#4B5563" stroke-width="3" stroke-linecap="round" stroke-linejoin="round"/>
<path d="M13.5909 16.7732L10.9393 19.4248C10.0953 20.2685 8.95079 20.7424 7.75739 20.7422C6.56409 20.7422 5.41965 20.2681 4.57583 19.4243C3.73202 18.5804 3.25792 17.436 3.25781 16.2427C3.25772 15.0493 3.73162 13.9048 4.57529 13.0608L7.22694 10.4092" stroke="#4B5563" stroke-width="3" stroke-linecap="round" stroke-linejoin="round"/>
<path d="M16.7731 13.5902L19.4248 10.9385C20.2685 10.0946 20.7424 8.95005 20.7422 7.75673C20.7422 6.56336 20.268 5.41893 19.4243 4.5751C18.5804 3.73128 17.4359 3.25719 16.2426 3.25708C15.0493 3.25698 13.9048 3.73089 13.0608 4.57456L10.4092 7.22621" stroke="#4B5563" stroke-width="3" stroke-linecap="round" stroke-linejoin="round"/>
</svg>
