<svg width="24" height="24" viewBox="0 0 24 24" fill="none" xmlns="http://www.w3.org/2000/svg">
<path d="M16.4561 12.8512C17.6384 11.9261 18.5014 10.6575 18.9249 9.22202C19.3485 7.78647 19.3116 6.25531 18.8195 4.84157C18.3273 3.42782 17.4043 2.2018 16.1789 1.33405C14.9534 0.466304 13.4864 0 11.9821 0C10.4777 0 9.01085 0.466304 7.78541 1.33405C6.55996 2.2018 5.63695 3.42782 5.14477 4.84157C4.6526 6.25531 4.61574 7.78647 5.03932 9.22202C5.4629 10.6575 6.32585 11.9261 7.50813 12.8512C5.48226 13.6584 3.71463 14.9972 2.39367 16.7248C1.0727 18.4525 0.247932 20.5043 0.00727778 22.6615C-0.0101478 22.819 0.00379288 22.9784 0.0483036 23.1306C0.0928143 23.2826 0.167015 23.4246 0.266685 23.5482C0.467966 23.7979 0.760716 23.9578 1.08055 23.9928C1.40038 24.0278 1.72109 23.9349 1.97212 23.7348C2.22315 23.5346 2.38394 23.2434 2.41913 22.9254C2.68393 20.581 3.80797 18.4157 5.57651 16.8434C7.34503 15.2711 9.63406 14.402 12.0062 14.402C14.3784 14.402 16.6674 15.2711 18.436 16.8434C20.2045 18.4157 21.3285 20.581 21.5933 22.9254C21.6261 23.22 21.7675 23.4923 21.9902 23.6893C22.213 23.8865 22.5012 23.9945 22.7993 23.9928H22.9319C23.248 23.9567 23.5369 23.7976 23.7358 23.5506C23.9345 23.3034 24.027 22.9882 23.9931 22.6735C23.7513 20.5102 22.9222 18.4531 21.5943 16.7228C20.2666 14.9924 18.4904 13.6541 16.4561 12.8512ZM11.9821 11.9997C11.0281 11.9997 10.0954 11.7183 9.30222 11.1912C8.50896 10.6641 7.89069 9.9149 7.5256 9.03827C7.1605 8.16169 7.06497 7.19713 7.2511 6.26655C7.43723 5.33598 7.89664 4.4812 8.57124 3.81029C9.24585 3.13938 10.1053 2.68248 11.041 2.49738C11.9768 2.31228 12.9466 2.40729 13.828 2.77038C14.7094 3.13347 15.4628 3.74835 15.9929 4.53724C16.5229 5.32615 16.8058 6.25364 16.8058 7.20244C16.8058 8.47475 16.2976 9.69494 15.393 10.5947C14.4884 11.4943 13.2615 11.9997 11.9821 11.9997Z" fill="#182233"/>
</svg>
