<svg xmlns="http://www.w3.org/2000/svg" xmlns:xlink="http://www.w3.org/1999/xlink" fill="none" version="1.1" width="42" height="42" viewBox="0 0 42 42"><clipPath id="master_svg0_60_0216"><rect x="0" y="0" width="42" height="42" rx="0"/></clipPath><g clip-path="url(#master_svg0_60_0216)" style="mix-blend-mode:passthrough"><g><g style="mix-blend-mode:passthrough"><path d="M21,2.1875C10.61014,2.1875,2.1875,10.61014,2.1875,21C2.1875,31.3899,10.61014,39.8125,21,39.8125C31.3899,39.8125,39.8125,31.3899,39.8125,21C39.8125,10.61014,31.3899,2.1875,21,2.1875C21,2.1875,21,2.1875,21,2.1875Z" fill="#EF6285" fill-opacity="0.3499999940395355"/></g><g style="mix-blend-mode:passthrough"><path d="M22.3125,10.5C22.3125,9.775126,21.72487,9.1875,21,9.1875C20.275126,9.1875,19.6875,9.775126,19.6875,10.5C19.6875,10.5,19.6875,21,19.6875,21C19.6875,21.178,19.7229184,21.3477,19.7870909,21.5024C19.851141,21.6572,19.946085,21.8022,20.071922,21.9281C20.071922,21.9281,25.32192,27.178,25.32192,27.178C25.83448,27.6906,26.66552,27.6906,27.17808,27.178C27.69063,26.6655,27.69063,25.8345,27.17808,25.3219C27.17808,25.3219,22.3125,20.4563,22.3125,20.4563C22.3125,20.4563,22.3125,10.5,22.3125,10.5C22.3125,10.5,22.3125,10.5,22.3125,10.5Z" fill="#EF6285" fill-opacity="1"/></g></g></g></svg>