<svg width="120" height="46" viewBox="0 0 120 46" fill="none" xmlns="http://www.w3.org/2000/svg">
<path d="M26.286 31.3445H38.749L23.056 0L5.097 35.8673L0 46H12.465L16.569 37.8428L23.056 24.8981L26.286 31.3445Z" fill="#182233"/>
<path d="M49.722 2.60948C42.864 2.60948 37.285 8.30885 37.285 15.3242V15.547C37.2685 18.1078 38.0249 20.612 39.452 22.7211C39.9069 23.4448 40.4373 24.1163 41.034 24.724L41.056 24.7464C43.3748 27.044 46.4858 28.3256 49.722 28.3167H63.588C64.4161 28.3236 65.2084 28.6614 65.7941 29.2573C66.3798 29.8532 66.7119 30.6594 66.719 31.5022C66.7081 32.3438 66.3747 33.1478 65.7899 33.7428C65.205 34.3379 64.4149 34.677 63.588 34.6878L22.788 34.7987L17.312 45.9511H63.98C64.036 45.9389 64.117 45.9206 64.213 45.8972C70.03 44.5008 77.406 39.0162 77.779 31.5969C77.984 27.5198 76.007 24.2091 74.579 22.3354L74.504 22.2397L74.418 22.1522C74.403 22.1369 74.36 22.084 74.329 22.0504C74.253 21.9568 74.151 21.8336 74.021 21.6963C72.6883 20.2177 71.0683 19.037 69.2638 18.2291C67.4592 17.4211 65.5095 17.0034 63.538 17.0024H49.722C49.3587 16.9977 49.0115 16.8487 48.7545 16.5874C48.4975 16.326 48.3509 15.9728 48.346 15.603V15.3791C48.3525 15.009 48.5002 14.6559 48.758 14.3947C49.0158 14.1335 49.3633 13.9847 49.727 13.9797L114.412 13.822L120 2.66138L49.722 2.60948Z" fill="#182233"/>
<path d="M80.248 29.9309V45.9512H91.334L91.365 29.9309C91.3697 29.5611 91.516 29.2078 91.7728 28.9462C92.0297 28.6846 92.3767 28.5354 92.74 28.5304H107.048L112.712 17.2172H92.685C85.827 17.2172 80.248 22.9206 80.248 29.9309Z" fill="#182233"/>
</svg>
